# xmcd CD database file
#
# Track frame offsets:
#	150
#	14662
#	34452
#	49774
#	72705
#	93119
#	114274
#	128575
#	157155
#	174517
#	193232
#	209322
#	225788
#	239274
#	254394
#	271132
#	288314
#	308953
#	322298
#
# Disc length: 4604 seconds
#
# Revision: 3
# Processed by: cddbd v1.5.2PL0 Copyright (c) Steve Scherf et al.
# Submitted via: CDex 1.60beta1-cs1
#
DISCID=1611fa13
DTITLE=Rodney Crowell - The Platinum Collection
DYEAR=2006
DGENRE=Country
TTITLE0=(Now and Then) There's a Fool Such As I
TTITLE1=Elvira
TTITLE2=Leaving Louisiana in the Broad Daylight
TTITLE3=I Ain't Living Long Like This
TTITLE4=Baby Better Start Turning 'Em Down
TTITLE5=Song For Life
TTITLE6=I Thought I Heard You Callin' My Name
TTITLE7=California Earthquake
TTITLE8=Voilà, an American Dream
TTITLE9=Ashes by Now
TTITLE10=Heartbroke
TTITLE11=Queen of Hearts
TTITLE12=Oh What a Feeling
TTITLE13=It's Only Rock 'n' Roll
TTITLE14=Stars on the Water
TTITLE15=She Ain't Going Nowhere
TTITLE16=Shame on the Moon
TTITLE17=Victim or a Fool
TTITLE18='Til I Gain Control Again
EXTD=YEAR: 2006
EXTT0=
EXTT1=
EXTT2=
EXTT3=
EXTT4=
EXTT5=
EXTT6=
EXTT7=
EXTT8=
EXTT9=
EXTT10=
EXTT11=
EXTT12=
EXTT13=
EXTT14=
EXTT15=
EXTT16=
EXTT17=
EXTT18=
PLAYORDER=
